<svg width="27" height="31" viewBox="0 0 27 31" fill="none" xmlns="http://www.w3.org/2000/svg">
<path d="M24.7036 27.1232C23.3225 29.0451 21.8581 30.9204 19.6283 30.9514C17.3985 30.9979 16.683 29.727 14.1536 29.727C11.6076 29.727 10.8256 30.9204 8.71222 30.9979C6.53233 31.0754 4.88493 28.9521 3.48714 27.0767C0.641637 23.2485 -1.53825 16.1964 1.39045 11.4537C2.83817 9.0979 5.43407 7.60999 8.24629 7.5635C10.3763 7.5325 12.4064 8.91191 13.721 8.91191C15.0189 8.91191 17.4817 7.25352 20.061 7.5015C21.1426 7.548 24.1711 7.90447 26.1181 10.5703C25.9683 10.6633 22.5071 12.5542 22.5404 16.4754C22.5903 21.1561 26.9501 22.7215 27 22.737C26.9501 22.8455 26.3011 24.9688 24.7036 27.1232ZM15.202 2.32485C16.4167 1.03843 18.4302 0.0619959 20.0942 0C20.3106 1.81338 19.5285 3.64226 18.3636 4.94417C17.2155 6.26158 15.3185 7.28452 13.4547 7.14503C13.2051 5.36264 14.137 3.50277 15.202 2.32485Z" fill="white"/>
</svg>
