<svg width="22" height="26" viewBox="0 0 22 26" fill="none" xmlns="http://www.w3.org/2000/svg">
<path d="M0.368243 1.27789L11.4791 13.0068L0.450875 24.8437C0.270449 24.5908 0.130391 24.3073 0.0364416 24.0049C-0.0121472 23.6625 -0.0121472 23.3141 0.0364416 22.9717V2.82833C0.00338868 2.2878 0.119074 1.74727 0.366971 1.27789M16.2654 7.89155L12.6385 11.7588L1.65985 0.136617C2.01581 0.00387863 2.39719 -0.0330689 2.76967 0.0298792C3.35445 0.202302 3.91254 0.467779 4.42486 0.813993L14.3611 6.73248C15.0069 7.10607 15.6362 7.49881 16.2654 7.89155ZM12.6398 14.2726L16.2489 18.0878L13.6327 19.656L5.65036 24.4318C4.9893 24.8246 4.3257 25.1995 3.6799 25.6279C3.40356 25.8131 3.09369 25.9326 2.771 25.9787C2.4483 26.0247 2.12019 25.9961 1.80859 25.8947L12.6398 14.2726ZM21.9963 13.0068C22.0056 13.4853 21.8933 13.9574 21.6715 14.3722C21.4497 14.787 21.1268 15.1288 20.7378 15.3605L17.7554 17.1422L13.831 13.0068L17.7719 8.80019C18.7826 9.40641 19.7767 10.0126 20.7696 10.5833C21.1655 10.8215 21.4907 11.1755 21.7076 11.6044C21.9245 12.0333 22.0254 12.5195 21.9963 13.0068Z" fill="white"/>
</svg>
